PathFileType	4	(X/Y/Z)	58_2_24_p1_0-236_filt_butterworth.trc
DataRate	CameraRate	NumFrames	NumMarkers	Units	OrigDataRate	OrigDataStartFrame	OrigNumFrames
34.0	34.0	7	27	m	34.0	59	236
Frame#	Time	RHip			RKnee			RAnkle			RBigToe			RSmallToe			RHeel			LHip			LKnee			LAnkle			LBigToe			LSmallToe			LHeel			Neck			Head			Nose			RShoulder			RElbow			RWrist			RThumb			RIndex			RPinky			LShoulder			LElbow			LWrist			LThumb			LIndex			LPinky			
		X1	Y1	Z1	X2	Y2	Z2	X3	Y3	Z3	X4	Y4	Z4	X5	Y5	Z5	X6	Y6	Z6	X7	Y7	Z7	X8	Y8	Z8	X9	Y9	Z9	X10	Y10	Z10	X11	Y11	Z11	X12	Y12	Z12	X13	Y13	Z13	X14	Y14	Z14	X15	Y15	Z15	X16	Y16	Z16	X17	Y17	Z17	X18	Y18	Z18	X19	Y19	Z19	X20	Y20	Z20	X21	Y21	Z21	X22	Y22	Z22	X23	Y23	Z23	X24	Y24	Z24	X25	Y25	Z25	X26	Y26	Z26	X27	Y27	Z27	
59	1.7352941176470589	0.34492896866307265	0.8071569827664355	0.7219993928655746	0.33333271071564236	0.3223220468015766	0.7422717841618109	0.31656879563611584	-0.1335647383448353	0.7747687353565841	0.2884903622935603	-0.12912949798926934	0.5313792966275077	0.3565590468894038	-0.1374320705662441	0.5744758668313054	0.2922152317442452	-0.2029623323964295	0.8268715142672749	0.15082026576223947	0.82110322764094	0.6983599130696785	0.13747319321624565	0.3209499271721554	0.7350397583463278	0.13117375455172636	-0.11571609883501052	0.7509949312022235	0.13465140457053956	-0.12821789030475184	0.5404047354001393	0.07335702926518031	-0.1501629069996426	0.5962742603523772	0.14355435007062814	-0.18527195252071674	0.8129438420973645	0.2609094670970659	1.3818388888120294	0.7339939654756913	0.3079354003938279	1.627070666875174	0.6732705089093612	0.30923111662441216	1.4835252153792426	0.6440362142910134	0.4081959393619826	1.2866876941093048	0.7822740282733764	0.4306125279821664	1.001600725415782	0.7801833698777711	0.4680108163141952	0.7604141693426713	0.6870560874921715	0.4220651643513961	0.6587349711196085	0.6198795709842793	0.4339769795741725	0.6366465638700205	0.6046124090747975	0.45235052216854477	0.5916929859664314	0.709783073948029	0.12396816315971579	1.320804972025838	0.7048202561463295	0.05454167929092646	1.0750273554007808	0.7139419773010685	0.16730101612756965	1.0595405725162372	0.5111303551553659	0.2620499095779595	1.0358738102142577	0.487634090851301	0.25926869631169536	1.0205021287945608	0.4739535525981809	0.2119710482876963	0.9907468276793443	0.4588010850716485	
60	1.7647058823529411	0.34537375246017316	0.8072627882025665	0.7208461932595476	0.3335175972856194	0.3224920128494596	0.7413400996682352	0.3168456601605169	-0.1344710929120697	0.7762256455647797	0.2884421661884815	-0.12935757048299218	0.5317089689440812	0.3575365909956163	-0.13899809540822697	0.5750820279109831	0.2921015508776445	-0.20310480840668724	0.8267589937732059	0.15142021239032363	0.8203123038081871	0.697474388314685	0.13777987916762627	0.3210192699519632	0.734209493037433	0.1311609394319206	-0.11565847130744547	0.7509544641571143	0.13464031494168704	-0.1283110635484475	0.5404853219041424	0.07335167431766126	-0.15027483087826982	0.5963754077619261	0.14357161129235402	-0.18537407191488672	0.813321518161408	0.2601090652735873	1.3814048985897054	0.7337748953003886	0.3077245431675357	1.6262917491388142	0.673330788549665	0.30952694231371736	1.4828009226139818	0.644044464932739	0.40728726158915185	1.2868987487214893	0.7855131135439191	0.42981999764384804	1.0017493552749956	0.7833352372918295	0.46790980519653713	0.7616121192742026	0.6870642321649487	0.42161423416281796	0.6588617087513033	0.6212084557422598	0.43441190219313525	0.6352951293935387	0.6051248826112118	0.45191974726937645	0.5936894099307667	0.7082319383691433	0.12318667891758217	1.320693831759075	0.7058512236354519	0.054551444424558296	1.072369324993658	0.7122360807858248	0.16690228666652868	1.0794224113394986	0.5064547747175119	0.26167309159341134	1.0655594018073709	0.4877162156795327	0.26098176511866905	1.0526425951202822	0.47774401656172993	0.21859012519557752	1.0199876108379744	0.456228537370208	
61	1.7941176470588236	0.3458541031632321	0.8075983184044087	0.7198493351607065	0.33367258142359624	0.3227559001500253	0.7402104797115369	0.31691644089145043	-0.1350913688205892	0.7774501077957139	0.28838080721360043	-0.12953446408973118	0.5319929923172872	0.358448417261766	-0.14044185843211052	0.5755432383779323	0.29202905001781343	-0.2031829658748407	0.8266426970975908	0.1519157353474521	0.8197564122060793	0.6967279328150847	0.13820991277378936	0.32141868889045666	0.7328349769295507	0.13116447883427598	-0.11568129737609041	0.7508832894929601	0.13462961757991182	-0.1283757937163529	0.5405463718101671	0.07333962887836681	-0.1503386329250665	0.5964498413291236	0.14350444795230044	-0.18527039998475658	0.8134824478115456	0.25931958295241286	1.3808313771982597	0.7335712327587354	0.30735563301904634	1.6258611583832785	0.6729032492666311	0.30881935750798273	1.4825385340198685	0.6442505594656665	0.40650260657783205	1.2870599018261775	0.7879500371849053	0.42908873943543485	1.0021322235234895	0.7859186547756455	0.46845748409111976	0.7631379268142412	0.6859394366724582	0.42121124743859406	0.6590432220753225	0.6225391233045299	0.4350007063266013	0.6358241166301652	0.6030288907566688	0.45245322128351906	0.5952158850995426	0.7082820729956782	0.12321853812751654	1.3213100100735933	0.7060163180513328	0.055310302822657004	1.0677580309540087	0.7100589508841246	0.16620078206631317	1.1023649747839463	0.5082978785966056	0.26055187138476715	1.100959242661751	0.49134802737209826	0.2605514151409537	1.0928332783305161	0.4796033037106818	0.22530010111955937	1.0557626038721146	0.46156250591783277	
62	1.8235294117647056	0.34651289373298566	0.8082428356014677	0.719033180336653	0.33400557006192927	0.3231186535490239	0.7389164907897184	0.3169602058052562	-0.1352814794674438	0.7780681018975977	0.28832043241388255	-0.12972768738448764	0.5322543148902676	0.35921489957415553	-0.14197646227579658	0.5757023766000144	0.29201166067921625	-0.203353361483997	0.8265554173846447	0.15219925556463398	0.8195121984358048	0.6960978812950859	0.13877022929965793	0.32194193448268393	0.7313450659891325	0.1312138805260959	-0.11579820793285169	0.7507893631169805	0.13460944576379236	-0.1284134927129661	0.5405826443616732	0.07332616829702211	-0.1503607022521184	0.5964903583061857	0.14337750734771335	-0.18494256180369553	0.8133081550647565	0.2584992257270089	1.3801803875771987	0.7333668392588042	0.30654765612995594	1.6261530395126491	0.6715105826723835	0.307474476846974	1.4820780852729334	0.6448144776595655	0.4064100266886346	1.2872735864505318	0.7885555431068507	0.4294642726339184	1.0032776796138938	0.785308130581057	0.4694672109157617	0.7650329697820034	0.6843366338581143	0.4212553463699244	0.659016045388119	0.6233333057095578	0.43568408938445025	0.6372096810077048	0.600271081619231	0.4536915269764627	0.59663921791313	0.7082393407585372	0.12390806477990157	1.3228573839799986	0.7063887214602765	0.05765448617673502	1.063150540134676	0.7069497468632947	0.16684474918342593	1.1297169724702445	0.514978532584803	0.26000703615323867	1.1433654383648717	0.49753983867342483	0.2597510192032143	1.1406908606905573	0.48357519568549545	0.2320415191576906	1.0971659124614348	0.4753000547518327	
63	1.8529411764705883	0.34739507377493717	0.8090807527753211	0.7184278550294496	0.33450780462004254	0.3236082994294166	0.7373715466091303	0.3170418636722202	-0.13527605847103316	0.7781606186267999	0.28824915164855514	-0.1298374069616687	0.5323800205772382	0.35966491414081486	-0.14312707111966907	0.5755149111439939	0.2920253314129181	-0.2036024633028677	0.8264893190055962	0.15230668016643814	0.8195469706617093	0.6954074393904459	0.13933615771776076	0.32238633107878695	0.7300819502460147	0.1312646219570034	-0.11598940104260395	0.7506576858863282	0.13458838345616997	-0.12843363728312948	0.5406136797884888	0.07330906538174015	-0.1503840034459235	0.5965374127854024	0.14327470495592484	-0.18452853113286108	0.8127674618855497	0.2577004080795222	1.3796069841070522	0.733252007401189	0.3052473669732774	1.6270431950689865	0.6696846952273802	0.3055778144179339	1.4813056097041528	0.645338619516242	0.4072582176725327	1.2882958089078547	0.7857074322262918	0.43158138920138545	1.0057356371683395	0.7792451946864443	0.4704603193004824	0.7672387591996476	0.6822390684334392	0.42170543055928034	0.6582892249094942	0.6234887104894002	0.43644872650439215	0.6384018156880599	0.5980536359057169	0.4552422031761627	0.5984009610114273	0.70662977353252	0.12498403346799097	1.325474765421746	0.7071319549235253	0.06186201696276043	1.0610671588854754	0.7005945541478362	0.16885040473658958	1.1584901735984403	0.5249282601711058	0.2597279492643708	1.1889839659183348	0.5044592762724662	0.2597108511585146	1.19061999214629	0.49090905718155553	0.23783127476589713	1.1434198289149606	0.49089566771786397	
64	1.8823529411764703	0.3482351449245759	0.8099254954391735	0.7180131966975032	0.3349235130925724	0.324131540105409	0.7357226766873712	0.31716181470242805	-0.13512267728620914	0.7780146413863014	0.28814084566954384	-0.12958776394922172	0.5322478755092933	0.3596697231844409	-0.14324028336295833	0.5749470416461836	0.29207363320028223	-0.20388382511961595	0.8263899671648632	0.1524037513375511	0.8199338368138024	0.6945069356020663	0.1398023602782996	0.32277362428397494	0.7290251362622403	0.13129825321001304	-0.11620592415962273	0.7505081787333967	0.13458444667220565	-0.12842619861066373	0.5406394050462057	0.07329098900076013	-0.15038686519138075	0.5965695713816568	0.14326647939525777	-0.1842187270220773	0.8121581377598927	0.257011966163022	1.3792355008972195	0.7332482433325178	0.30333277725354635	1.6279693585953998	0.667649274759191	0.30269866031680415	1.480687352666373	0.6453286001356205	0.4087979536350018	1.290248266867093	0.7791202135297361	0.4344265344275846	1.009458868480069	0.7703082376430281	0.4710935399927688	0.7689205351351214	0.6796358782282337	0.4220538875754621	0.6570259726991595	0.6230269928135175	0.4371347686378656	0.6393490115384918	0.5960036054489379	0.45698391214544215	0.5998724349809137	0.7043900226867381	0.1264390783483848	1.3288291115633128	0.7082205579750448	0.06750997934472927	1.0630361145031995	0.6897531543388129	0.1721135615806324	1.185968446264559	0.5374995892745755	0.259430287862603	1.2334279850919092	0.5131306556846544	0.2598716226697104	1.2374085841135414	0.501114008392177	0.24269136487118026	1.1928849665144912	0.5038730007226621	
65	1.911764705882353	0.34884182020602367	0.8107110720073984	0.7176727796633511	0.3352001985845796	0.3246295981455948	0.734155291248828	0.31733860232814926	-0.1348554843096426	0.7776813659719666	0.2880398321372576	-0.1291003935334506	0.5319861130656465	0.3592275186571078	-0.1426619032657971	0.5740224246224112	0.2922029340595911	-0.20431554650703515	0.8264379963783168	0.15247057862411983	0.8204860766844383	0.6938541712995525	0.14016492123307447	0.32327118312922304	0.7281651812681855	0.13132017877072	-0.11645422358072285	0.7503411204017318	0.13460272396209275	-0.1283727042033557	0.54063477429155	0.0732802649220987	-0.15034441168196072	0.596553691529857	0.1433174587791711	-0.18404846325482682	0.811826518005054	0.25669292827054685	1.3793071596581106	0.7328669772641847	0.30078310815870907	1.628657065071194	0.6653024618623682	0.29938153860786165	1.4801973418831238	0.64528558589529	0.4107393186187833	1.292662697036298	0.7706658267139241	0.43682815396758284	1.0133948622213012	0.7625057776101822	0.47137594268314087	0.7696464904951164	0.6770236105438416	0.42210886534022796	0.6561690716682963	0.6223109805149298	0.4375927238631542	0.6403312105913689	0.5939727617664319	0.45869417628621056	0.6005923034239303	0.7024187902363923	0.12797398330486787	1.3319854290244297	0.7103636714972721	0.07409465241309143	1.0699287083524671	0.6742394226293977	0.17676312173644138	1.2115073261659097	0.5519280936719335	0.25904862155944824	1.2725503599543997	0.5245634268134495	0.25964581275439996	1.279216666952544	0.514040007547864	0.24717263464281877	1.2398108551420401	0.5142245825120919	
